<svg xmlns="http://www.w3.org/2000/svg"
xmlns:xlink="http://www.w3.org/1999/xlink">
<defs>
   <marker id="startarrow0" markerWidth="10" markerHeight="7"
   refX="10" refY="3.5" orient="auto">
     <polygon points="10 0, 10 7, 0 3.5" fill="black" />
   </marker>
   <marker id="endarrow0" markerWidth="10" markerHeight="7"
   refX="0" refY="3.5" orient="auto" markerUnits="strokeWidth">
       <polygon points="0 0, 10 3.5, 0 7" fill="black" />
   </marker>
 </defs>
<line x1="80" y1="100" x2="100" y2="100" stroke="#000" stroke-width="2"
 marker-end="url(#endarrow0)" marker-start="url(#startarrow0)" />
<g>
<rect x="10" y="80" height="40" width="40" style="stroke:#000000; fill: #66000000"/>
<text x="27" y="103" font-family="Verdana" font-size="10" fill="black">5</text>
</g>
<defs>
   <marker id="startarrow1" markerWidth="10" markerHeight="7"
   refX="10" refY="3.5" orient="auto">
     <polygon points="10 0, 10 7, 0 3.5" fill="black" />
   </marker>
   <marker id="endarrow1" markerWidth="10" markerHeight="7"
   refX="0" refY="3.5" orient="auto" markerUnits="strokeWidth">
       <polygon points="0 0, 10 3.5, 0 7" fill="black" />
   </marker>
 </defs>
<line x1="200" y1="100" x2="220" y2="100" stroke="#000" stroke-width="2"
 marker-end="url(#endarrow1)" marker-start="url(#startarrow1)" />
<g>
<rect x="130" y="80" height="40" width="40" style="stroke:#000000; fill: #66000000"/>
<text x="147" y="103" font-family="Verdana" font-size="10" fill="black">1</text>
</g>
<defs>
   <marker id="startarrow2" markerWidth="10" markerHeight="7"
   refX="10" refY="3.5" orient="auto">
     <polygon points="10 0, 10 7, 0 3.5" fill="black" />
   </marker>
   <marker id="endarrow2" markerWidth="10" markerHeight="7"
   refX="0" refY="3.5" orient="auto" markerUnits="strokeWidth">
       <polygon points="0 0, 10 3.5, 0 7" fill="black" />
   </marker>
 </defs>
<line x1="320" y1="100" x2="340" y2="100" stroke="#000" stroke-width="2"
 marker-end="url(#endarrow2)" marker-start="url(#startarrow2)" />
<g>
<rect x="250" y="80" height="40" width="40" style="stroke:#000000; fill: #66000000"/>
<text x="267" y="103" font-family="Verdana" font-size="10" fill="black">4</text>
</g>
<defs>
   <marker id="startarrow3" markerWidth="10" markerHeight="7"
   refX="10" refY="3.5" orient="auto">
     <polygon points="10 0, 10 7, 0 3.5" fill="black" />
   </marker>
   <marker id="endarrow3" markerWidth="10" markerHeight="7"
   refX="0" refY="3.5" orient="auto" markerUnits="strokeWidth">
       <polygon points="0 0, 10 3.5, 0 7" fill="black" />
   </marker>
 </defs>
<line x1="440" y1="100" x2="460" y2="100" stroke="#000" stroke-width="2"
 marker-end="url(#endarrow3)" marker-start="url(#startarrow3)" />
<g>
<rect x="370" y="80" height="40" width="40" style="stroke:#000000; fill: #66000000"/>
<text x="387" y="103" font-family="Verdana" font-size="10" fill="black">7</text>
</g>
<defs>
   <marker id="startarrow4" markerWidth="10" markerHeight="7"
   refX="10" refY="3.5" orient="auto">
     <polygon points="10 0, 10 7, 0 3.5" fill="black" />
   </marker>
   <marker id="endarrow4" markerWidth="10" markerHeight="7"
   refX="0" refY="3.5" orient="auto" markerUnits="strokeWidth">
       <polygon points="0 0, 10 3.5, 0 7" fill="black" />
   </marker>
 </defs>
<line x1="560" y1="100" x2="580" y2="100" stroke="#000" stroke-width="2"
 marker-end="url(#endarrow4)" marker-start="url(#startarrow4)" />
<g>
<rect x="490" y="80" height="40" width="40" style="stroke:#000000; fill: #66000000"/>
<text x="507" y="103" font-family="Verdana" font-size="10" fill="black">0</text>
</g>
<defs>
   <marker id="startarrow5" markerWidth="10" markerHeight="7"
   refX="10" refY="3.5" orient="auto">
     <polygon points="10 0, 10 7, 0 3.5" fill="black" />
   </marker>
   <marker id="endarrow5" markerWidth="10" markerHeight="7"
   refX="0" refY="3.5" orient="auto" markerUnits="strokeWidth">
       <polygon points="0 0, 10 3.5, 0 7" fill="black" />
   </marker>
 </defs>
<line x1="680" y1="100" x2="700" y2="100" stroke="#000" stroke-width="2"
 marker-end="url(#endarrow5)" marker-start="url(#startarrow5)" />
<g>
<rect x="610" y="80" height="40" width="40" style="stroke:#000000; fill: #66000000"/>
<text x="627" y="103" font-family="Verdana" font-size="10" fill="black">2</text>
</g>
<defs>
   <marker id="startarrow6" markerWidth="10" markerHeight="7"
   refX="10" refY="3.5" orient="auto">
     <polygon points="10 0, 10 7, 0 3.5" fill="black" />
   </marker>
   <marker id="endarrow6" markerWidth="10" markerHeight="7"
   refX="0" refY="3.5" orient="auto" markerUnits="strokeWidth">
       <polygon points="0 0, 10 3.5, 0 7" fill="black" />
   </marker>
 </defs>
<line x1="800" y1="100" x2="820" y2="100" stroke="#000" stroke-width="2"
 marker-end="url(#endarrow6)" marker-start="url(#startarrow6)" />
<g>
<rect x="730" y="80" height="40" width="40" style="stroke:#000000; fill: #66000000"/>
<text x="747" y="103" font-family="Verdana" font-size="10" fill="black">3</text>
</g>
<defs>
   <marker id="startarrow7" markerWidth="10" markerHeight="7"
   refX="10" refY="3.5" orient="auto">
     <polygon points="10 0, 10 7, 0 3.5" fill="black" />
   </marker>
   <marker id="endarrow7" markerWidth="10" markerHeight="7"
   refX="0" refY="3.5" orient="auto" markerUnits="strokeWidth">
       <polygon points="0 0, 10 3.5, 0 7" fill="black" />
   </marker>
 </defs>
<line x1="920" y1="100" x2="940" y2="100" stroke="#000" stroke-width="2"
 marker-end="url(#endarrow7)" marker-start="url(#startarrow7)" />
<g>
<rect x="850" y="80" height="40" width="40" style="stroke:#000000; fill: #66000000"/>
<text x="867" y="103" font-family="Verdana" font-size="10" fill="black">6</text>
</g>
<defs>
   <marker id="startarrow8" markerWidth="10" markerHeight="7"
   refX="10" refY="3.5" orient="auto">
     <polygon points="10 0, 10 7, 0 3.5" fill="black" />
   </marker>
   <marker id="endarrow8" markerWidth="10" markerHeight="7"
   refX="0" refY="3.5" orient="auto" markerUnits="strokeWidth">
       <polygon points="0 0, 10 3.5, 0 7" fill="black" />
   </marker>
 </defs>
<line x1="1040" y1="100" x2="1060" y2="100" stroke="#000" stroke-width="2"
 marker-end="url(#endarrow8)" marker-start="url(#startarrow8)" />
<g>
<rect x="970" y="80" height="40" width="40" style="stroke:#000000; fill: #66000000"/>
<text x="987" y="103" font-family="Verdana" font-size="10" fill="black">9</text>
</g>
<defs>
   <marker id="startarrow9" markerWidth="10" markerHeight="7"
   refX="10" refY="3.5" orient="auto">
     <polygon points="10 0, 10 7, 0 3.5" fill="black" />
   </marker>
   <marker id="endarrow9" markerWidth="10" markerHeight="7"
   refX="0" refY="3.5" orient="auto" markerUnits="strokeWidth">
       <polygon points="0 0, 10 3.5, 0 7" fill="black" />
   </marker>
 </defs>
<line x1="1160" y1="100" x2="1180" y2="100" stroke="#000" stroke-width="2"
 marker-end="url(#endarrow9)" marker-start="url(#startarrow9)" />
<g>
<rect x="1090" y="80" height="40" width="40" style="stroke:#000000; fill: #66000000"/>
<text x="1107" y="103" font-family="Verdana" font-size="10" fill="black">31</text>
</g>
<defs>
   <marker id="startarrow10" markerWidth="10" markerHeight="7"
   refX="10" refY="3.5" orient="auto">
     <polygon points="10 0, 10 7, 0 3.5" fill="black" />
   </marker>
   <marker id="endarrow10" markerWidth="10" markerHeight="7"
   refX="0" refY="3.5" orient="auto" markerUnits="strokeWidth">
       <polygon points="0 0, 10 3.5, 0 7" fill="black" />
   </marker>
 </defs>
<line x1="80" y1="169" x2="100" y2="169" stroke="#000" stroke-width="2"
 marker-end="url(#endarrow10)" marker-start="url(#startarrow10)" />
<g>
<rect x="10" y="150" height="40" width="40" style="stroke:#000000; fill: #66000000"/>
<text x="27" y="173" font-family="Verdana" font-size="10" fill="black">1</text>
</g>
<defs>
   <marker id="startarrow11" markerWidth="10" markerHeight="7"
   refX="10" refY="3.5" orient="auto">
     <polygon points="10 0, 10 7, 0 3.5" fill="black" />
   </marker>
   <marker id="endarrow11" markerWidth="10" markerHeight="7"
   refX="0" refY="3.5" orient="auto" markerUnits="strokeWidth">
       <polygon points="0 0, 10 3.5, 0 7" fill="black" />
   </marker>
 </defs>
<line x1="200" y1="169" x2="220" y2="169" stroke="#000" stroke-width="2"
 marker-end="url(#endarrow11)" marker-start="url(#startarrow11)" />
<g>
<rect x="130" y="150" height="40" width="40" style="stroke:#000000; fill: #66000000"/>
<text x="147" y="173" font-family="Verdana" font-size="10" fill="black">2</text>
</g>
<defs>
   <marker id="startarrow12" markerWidth="10" markerHeight="7"
   refX="10" refY="3.5" orient="auto">
     <polygon points="10 0, 10 7, 0 3.5" fill="black" />
   </marker>
   <marker id="endarrow12" markerWidth="10" markerHeight="7"
   refX="0" refY="3.5" orient="auto" markerUnits="strokeWidth">
       <polygon points="0 0, 10 3.5, 0 7" fill="black" />
   </marker>
 </defs>
<line x1="320" y1="169" x2="340" y2="169" stroke="#000" stroke-width="2"
 marker-end="url(#endarrow12)" marker-start="url(#startarrow12)" />
<g>
<rect x="250" y="150" height="40" width="40" style="stroke:#000000; fill: #66000000"/>
<text x="267" y="173" font-family="Verdana" font-size="10" fill="black">3</text>
</g>
<defs>
   <marker id="startarrow13" markerWidth="10" markerHeight="7"
   refX="10" refY="3.5" orient="auto">
     <polygon points="10 0, 10 7, 0 3.5" fill="black" />
   </marker>
   <marker id="endarrow13" markerWidth="10" markerHeight="7"
   refX="0" refY="3.5" orient="auto" markerUnits="strokeWidth">
       <polygon points="0 0, 10 3.5, 0 7" fill="black" />
   </marker>
 </defs>
<line x1="440" y1="169" x2="460" y2="169" stroke="#000" stroke-width="2"
 marker-end="url(#endarrow13)" marker-start="url(#startarrow13)" />
<g>
<rect x="370" y="150" height="40" width="40" style="stroke:#000000; fill: #66000000"/>
<text x="387" y="173" font-family="Verdana" font-size="10" fill="black">4</text>
</g>
<defs>
   <marker id="startarrow14" markerWidth="10" markerHeight="7"
   refX="10" refY="3.5" orient="auto">
     <polygon points="10 0, 10 7, 0 3.5" fill="black" />
   </marker>
   <marker id="endarrow14" markerWidth="10" markerHeight="7"
   refX="0" refY="3.5" orient="auto" markerUnits="strokeWidth">
       <polygon points="0 0, 10 3.5, 0 7" fill="black" />
   </marker>
 </defs>
<line x1="560" y1="169" x2="580" y2="169" stroke="#000" stroke-width="2"
 marker-end="url(#endarrow14)" marker-start="url(#startarrow14)" />
<g>
<rect x="490" y="150" height="40" width="40" style="stroke:#000000; fill: #66000000"/>
<text x="507" y="173" font-family="Verdana" font-size="10" fill="black">5</text>
</g>
<defs>
   <marker id="startarrow15" markerWidth="10" markerHeight="7"
   refX="10" refY="3.5" orient="auto">
     <polygon points="10 0, 10 7, 0 3.5" fill="black" />
   </marker>
   <marker id="endarrow15" markerWidth="10" markerHeight="7"
   refX="0" refY="3.5" orient="auto" markerUnits="strokeWidth">
       <polygon points="0 0, 10 3.5, 0 7" fill="black" />
   </marker>
 </defs>
<line x1="680" y1="169" x2="700" y2="169" stroke="#000" stroke-width="2"
 marker-end="url(#endarrow15)" marker-start="url(#startarrow15)" />
<g>
<rect x="610" y="150" height="40" width="40" style="stroke:#000000; fill: #66000000"/>
<text x="627" y="173" font-family="Verdana" font-size="10" fill="black">6</text>
</g>
<defs>
   <marker id="startarrow16" markerWidth="10" markerHeight="7"
   refX="10" refY="3.5" orient="auto">
     <polygon points="10 0, 10 7, 0 3.5" fill="black" />
   </marker>
   <marker id="endarrow16" markerWidth="10" markerHeight="7"
   refX="0" refY="3.5" orient="auto" markerUnits="strokeWidth">
       <polygon points="0 0, 10 3.5, 0 7" fill="black" />
   </marker>
 </defs>
<line x1="800" y1="169" x2="820" y2="169" stroke="#000" stroke-width="2"
 marker-end="url(#endarrow16)" marker-start="url(#startarrow16)" />
<g>
<rect x="730" y="150" height="40" width="40" style="stroke:#000000; fill: #66000000"/>
<text x="747" y="173" font-family="Verdana" font-size="10" fill="black">7</text>
</g>
<defs>
   <marker id="startarrow17" markerWidth="10" markerHeight="7"
   refX="10" refY="3.5" orient="auto">
     <polygon points="10 0, 10 7, 0 3.5" fill="black" />
   </marker>
   <marker id="endarrow17" markerWidth="10" markerHeight="7"
   refX="0" refY="3.5" orient="auto" markerUnits="strokeWidth">
       <polygon points="0 0, 10 3.5, 0 7" fill="black" />
   </marker>
 </defs>
<line x1="920" y1="169" x2="940" y2="169" stroke="#000" stroke-width="2"
 marker-end="url(#endarrow17)" marker-start="url(#startarrow17)" />
<g>
<rect x="850" y="150" height="40" width="40" style="stroke:#000000; fill: #66000000"/>
<text x="867" y="173" font-family="Verdana" font-size="10" fill="black">9</text>
</g>
<defs>
   <marker id="startarrow18" markerWidth="10" markerHeight="7"
   refX="10" refY="3.5" orient="auto">
     <polygon points="10 0, 10 7, 0 3.5" fill="black" />
   </marker>
   <marker id="endarrow18" markerWidth="10" markerHeight="7"
   refX="0" refY="3.5" orient="auto" markerUnits="strokeWidth">
       <polygon points="0 0, 10 3.5, 0 7" fill="black" />
   </marker>
 </defs>
<line x1="1040" y1="169" x2="1060" y2="169" stroke="#000" stroke-width="2"
 marker-end="url(#endarrow18)" marker-start="url(#startarrow18)" />
<g>
<rect x="970" y="150" height="40" width="40" style="stroke:#000000; fill: #66000000"/>
<text x="987" y="173" font-family="Verdana" font-size="10" fill="black">10</text>
</g>
<defs>
   <marker id="startarrow19" markerWidth="10" markerHeight="7"
   refX="10" refY="3.5" orient="auto">
     <polygon points="10 0, 10 7, 0 3.5" fill="black" />
   </marker>
   <marker id="endarrow19" markerWidth="10" markerHeight="7"
   refX="0" refY="3.5" orient="auto" markerUnits="strokeWidth">
       <polygon points="0 0, 10 3.5, 0 7" fill="black" />
   </marker>
 </defs>
<line x1="1160" y1="169" x2="1180" y2="169" stroke="#000" stroke-width="2"
 marker-end="url(#endarrow19)" marker-start="url(#startarrow19)" />
<g>
<rect x="1090" y="150" height="40" width="40" style="stroke:#000000; fill: #66000000"/>
<text x="1107" y="173" font-family="Verdana" font-size="10" fill="black">11</text>
</g>
<defs>
   <marker id="startarrow20" markerWidth="10" markerHeight="7"
   refX="10" refY="3.5" orient="auto">
     <polygon points="10 0, 10 7, 0 3.5" fill="black" />
   </marker>
   <marker id="endarrow20" markerWidth="10" markerHeight="7"
   refX="0" refY="3.5" orient="auto" markerUnits="strokeWidth">
       <polygon points="0 0, 10 3.5, 0 7" fill="black" />
   </marker>
 </defs>
<line x1="80" y1="238" x2="100" y2="238" stroke="#000" stroke-width="2"
 marker-end="url(#endarrow20)" marker-start="url(#startarrow20)" />
<g>
<rect x="10" y="220" height="40" width="40" style="stroke:#000000; fill: #66000000"/>
<text x="27" y="243" font-family="Verdana" font-size="10" fill="black">12</text>
</g>
<defs>
   <marker id="startarrow21" markerWidth="10" markerHeight="7"
   refX="10" refY="3.5" orient="auto">
     <polygon points="10 0, 10 7, 0 3.5" fill="black" />
   </marker>
   <marker id="endarrow21" markerWidth="10" markerHeight="7"
   refX="0" refY="3.5" orient="auto" markerUnits="strokeWidth">
       <polygon points="0 0, 10 3.5, 0 7" fill="black" />
   </marker>
 </defs>
<line x1="200" y1="238" x2="220" y2="238" stroke="#000" stroke-width="2"
 marker-end="url(#endarrow21)" marker-start="url(#startarrow21)" />
<g>
<rect x="130" y="220" height="40" width="40" style="stroke:#000000; fill: #66000000"/>
<text x="147" y="243" font-family="Verdana" font-size="10" fill="black">13</text>
</g>
<defs>
   <marker id="startarrow22" markerWidth="10" markerHeight="7"
   refX="10" refY="3.5" orient="auto">
     <polygon points="10 0, 10 7, 0 3.5" fill="black" />
   </marker>
   <marker id="endarrow22" markerWidth="10" markerHeight="7"
   refX="0" refY="3.5" orient="auto" markerUnits="strokeWidth">
       <polygon points="0 0, 10 3.5, 0 7" fill="black" />
   </marker>
 </defs>
<line x1="320" y1="238" x2="340" y2="238" stroke="#000" stroke-width="2"
 marker-end="url(#endarrow22)" marker-start="url(#startarrow22)" />
<g>
<rect x="250" y="220" height="40" width="40" style="stroke:#000000; fill: #66000000"/>
<text x="267" y="243" font-family="Verdana" font-size="10" fill="black">14</text>
</g>
<defs>
   <marker id="startarrow23" markerWidth="10" markerHeight="7"
   refX="10" refY="3.5" orient="auto">
     <polygon points="10 0, 10 7, 0 3.5" fill="black" />
   </marker>
   <marker id="endarrow23" markerWidth="10" markerHeight="7"
   refX="0" refY="3.5" orient="auto" markerUnits="strokeWidth">
       <polygon points="0 0, 10 3.5, 0 7" fill="black" />
   </marker>
 </defs>
<line x1="440" y1="238" x2="460" y2="238" stroke="#000" stroke-width="2"
 marker-end="url(#endarrow23)" marker-start="url(#startarrow23)" />
<g>
<rect x="370" y="220" height="40" width="40" style="stroke:#000000; fill: #66000000"/>
<text x="387" y="243" font-family="Verdana" font-size="10" fill="black">29</text>
</g>
<defs>
   <marker id="startarrow24" markerWidth="10" markerHeight="7"
   refX="10" refY="3.5" orient="auto">
     <polygon points="10 0, 10 7, 0 3.5" fill="black" />
   </marker>
   <marker id="endarrow24" markerWidth="10" markerHeight="7"
   refX="0" refY="3.5" orient="auto" markerUnits="strokeWidth">
       <polygon points="0 0, 10 3.5, 0 7" fill="black" />
   </marker>
 </defs>
<line x1="560" y1="238" x2="580" y2="238" stroke="#000" stroke-width="2"
 marker-end="url(#endarrow24)" marker-start="url(#startarrow24)" />
<g>
<rect x="490" y="220" height="40" width="40" style="stroke:#000000; fill: #66000000"/>
<text x="507" y="243" font-family="Verdana" font-size="10" fill="black">62</text>
</g>
<defs>
   <marker id="startarrow25" markerWidth="10" markerHeight="7"
   refX="10" refY="3.5" orient="auto">
     <polygon points="10 0, 10 7, 0 3.5" fill="black" />
   </marker>
   <marker id="endarrow25" markerWidth="10" markerHeight="7"
   refX="0" refY="3.5" orient="auto" markerUnits="strokeWidth">
       <polygon points="0 0, 10 3.5, 0 7" fill="black" />
   </marker>
 </defs>
<line x1="680" y1="238" x2="700" y2="238" stroke="#000" stroke-width="2"
 marker-end="url(#endarrow25)" marker-start="url(#startarrow25)" />
<g>
<rect x="610" y="220" height="40" width="40" style="stroke:#000000; fill: #66000000"/>
<text x="627" y="243" font-family="Verdana" font-size="10" fill="black">63</text>
</g>
<defs>
   <marker id="startarrow26" markerWidth="10" markerHeight="7"
   refX="10" refY="3.5" orient="auto">
     <polygon points="10 0, 10 7, 0 3.5" fill="black" />
   </marker>
   <marker id="endarrow26" markerWidth="10" markerHeight="7"
   refX="0" refY="3.5" orient="auto" markerUnits="strokeWidth">
       <polygon points="0 0, 10 3.5, 0 7" fill="black" />
   </marker>
 </defs>
<line x1="800" y1="238" x2="820" y2="238" stroke="#000" stroke-width="2"
 marker-end="url(#endarrow26)" marker-start="url(#startarrow26)" />
<g>
<rect x="730" y="220" height="40" width="40" style="stroke:#000000; fill: #66000000"/>
<text x="747" y="243" font-family="Verdana" font-size="10" fill="black">30</text>
</g>
<defs>
   <marker id="startarrow27" markerWidth="10" markerHeight="7"
   refX="10" refY="3.5" orient="auto">
     <polygon points="10 0, 10 7, 0 3.5" fill="black" />
   </marker>
   <marker id="endarrow27" markerWidth="10" markerHeight="7"
   refX="0" refY="3.5" orient="auto" markerUnits="strokeWidth">
       <polygon points="0 0, 10 3.5, 0 7" fill="black" />
   </marker>
 </defs>
<line x1="920" y1="238" x2="940" y2="238" stroke="#000" stroke-width="2"
 marker-end="url(#endarrow27)" marker-start="url(#startarrow27)" />
<g>
<rect x="850" y="220" height="40" width="40" style="stroke:#000000; fill: #66000000"/>
<text x="867" y="243" font-family="Verdana" font-size="10" fill="black">31</text>
</g>
<defs>
   <marker id="startarrow28" markerWidth="10" markerHeight="7"
   refX="10" refY="3.5" orient="auto">
     <polygon points="10 0, 10 7, 0 3.5" fill="black" />
   </marker>
   <marker id="endarrow28" markerWidth="10" markerHeight="7"
   refX="0" refY="3.5" orient="auto" markerUnits="strokeWidth">
       <polygon points="0 0, 10 3.5, 0 7" fill="black" />
   </marker>
 </defs>
<line x1="1040" y1="238" x2="1060" y2="238" stroke="#000" stroke-width="2"
 marker-end="url(#endarrow28)" marker-start="url(#startarrow28)" />
<g>
<rect x="970" y="220" height="40" width="40" style="stroke:#000000; fill: #66000000"/>
<text x="987" y="243" font-family="Verdana" font-size="10" fill="black">32</text>
</g>
<defs>
   <marker id="startarrow29" markerWidth="10" markerHeight="7"
   refX="10" refY="3.5" orient="auto">
     <polygon points="10 0, 10 7, 0 3.5" fill="black" />
   </marker>
   <marker id="endarrow29" markerWidth="10" markerHeight="7"
   refX="0" refY="3.5" orient="auto" markerUnits="strokeWidth">
       <polygon points="0 0, 10 3.5, 0 7" fill="black" />
   </marker>
 </defs>
<line x1="1160" y1="238" x2="1180" y2="238" stroke="#000" stroke-width="2"
 marker-end="url(#endarrow29)" marker-start="url(#startarrow29)" />
<g>
<rect x="1090" y="220" height="40" width="40" style="stroke:#000000; fill: #66000000"/>
<text x="1107" y="243" font-family="Verdana" font-size="10" fill="black">33</text>
</g>
<defs>
   <marker id="startarrow30" markerWidth="10" markerHeight="7"
   refX="10" refY="3.5" orient="auto">
     <polygon points="10 0, 10 7, 0 3.5" fill="black" />
   </marker>
   <marker id="endarrow30" markerWidth="10" markerHeight="7"
   refX="0" refY="3.5" orient="auto" markerUnits="strokeWidth">
       <polygon points="0 0, 10 3.5, 0 7" fill="black" />
   </marker>
 </defs>
<line x1="80" y1="307" x2="100" y2="307" stroke="#000" stroke-width="2"
 marker-end="url(#endarrow30)" marker-start="url(#startarrow30)" />
<g>
<rect x="10" y="290" height="40" width="40" style="stroke:#000000; fill: #66000000"/>
<text x="27" y="313" font-family="Verdana" font-size="10" fill="black">34</text>
</g>
<defs>
   <marker id="startarrow31" markerWidth="10" markerHeight="7"
   refX="10" refY="3.5" orient="auto">
     <polygon points="10 0, 10 7, 0 3.5" fill="black" />
   </marker>
   <marker id="endarrow31" markerWidth="10" markerHeight="7"
   refX="0" refY="3.5" orient="auto" markerUnits="strokeWidth">
       <polygon points="0 0, 10 3.5, 0 7" fill="black" />
   </marker>
 </defs>
<line x1="200" y1="307" x2="220" y2="307" stroke="#000" stroke-width="2"
 marker-end="url(#endarrow31)" marker-start="url(#startarrow31)" />
<g>
<rect x="130" y="290" height="40" width="40" style="stroke:#000000; fill: #66000000"/>
<text x="147" y="313" font-family="Verdana" font-size="10" fill="black">35</text>
</g>
<defs>
   <marker id="startarrow32" markerWidth="10" markerHeight="7"
   refX="10" refY="3.5" orient="auto">
     <polygon points="10 0, 10 7, 0 3.5" fill="black" />
   </marker>
   <marker id="endarrow32" markerWidth="10" markerHeight="7"
   refX="0" refY="3.5" orient="auto" markerUnits="strokeWidth">
       <polygon points="0 0, 10 3.5, 0 7" fill="black" />
   </marker>
 </defs>
<line x1="320" y1="307" x2="340" y2="307" stroke="#000" stroke-width="2"
 marker-end="url(#endarrow32)" marker-start="url(#startarrow32)" />
<g>
<rect x="250" y="290" height="40" width="40" style="stroke:#000000; fill: #66000000"/>
<text x="267" y="313" font-family="Verdana" font-size="10" fill="black">36</text>
</g>
<defs>
   <marker id="startarrow33" markerWidth="10" markerHeight="7"
   refX="10" refY="3.5" orient="auto">
     <polygon points="10 0, 10 7, 0 3.5" fill="black" />
   </marker>
   <marker id="endarrow33" markerWidth="10" markerHeight="7"
   refX="0" refY="3.5" orient="auto" markerUnits="strokeWidth">
       <polygon points="0 0, 10 3.5, 0 7" fill="black" />
   </marker>
 </defs>
<line x1="440" y1="307" x2="460" y2="307" stroke="#000" stroke-width="2"
 marker-end="url(#endarrow33)" marker-start="url(#startarrow33)" />
<g>
<rect x="370" y="290" height="40" width="40" style="stroke:#000000; fill: #66000000"/>
<text x="387" y="313" font-family="Verdana" font-size="10" fill="black">37</text>
</g>
<defs>
   <marker id="startarrow34" markerWidth="10" markerHeight="7"
   refX="10" refY="3.5" orient="auto">
     <polygon points="10 0, 10 7, 0 3.5" fill="black" />
   </marker>
   <marker id="endarrow34" markerWidth="10" markerHeight="7"
   refX="0" refY="3.5" orient="auto" markerUnits="strokeWidth">
       <polygon points="0 0, 10 3.5, 0 7" fill="black" />
   </marker>
 </defs>
<line x1="560" y1="307" x2="580" y2="307" stroke="#000" stroke-width="2"
 marker-end="url(#endarrow34)" marker-start="url(#startarrow34)" />
<g>
<rect x="490" y="290" height="40" width="40" style="stroke:#000000; fill: #66000000"/>
<text x="507" y="313" font-family="Verdana" font-size="10" fill="black">38</text>
</g>
<defs>
   <marker id="startarrow35" markerWidth="10" markerHeight="7"
   refX="10" refY="3.5" orient="auto">
     <polygon points="10 0, 10 7, 0 3.5" fill="black" />
   </marker>
   <marker id="endarrow35" markerWidth="10" markerHeight="7"
   refX="0" refY="3.5" orient="auto" markerUnits="strokeWidth">
       <polygon points="0 0, 10 3.5, 0 7" fill="black" />
   </marker>
 </defs>
<line x1="680" y1="307" x2="700" y2="307" stroke="#000" stroke-width="2"
 marker-end="url(#endarrow35)" marker-start="url(#startarrow35)" />
<g>
<rect x="610" y="290" height="40" width="40" style="stroke:#000000; fill: #66000000"/>
<text x="627" y="313" font-family="Verdana" font-size="10" fill="black">39</text>
</g>
<defs>
   <marker id="startarrow36" markerWidth="10" markerHeight="7"
   refX="10" refY="3.5" orient="auto">
     <polygon points="10 0, 10 7, 0 3.5" fill="black" />
   </marker>
   <marker id="endarrow36" markerWidth="10" markerHeight="7"
   refX="0" refY="3.5" orient="auto" markerUnits="strokeWidth">
       <polygon points="0 0, 10 3.5, 0 7" fill="black" />
   </marker>
 </defs>
<line x1="800" y1="307" x2="820" y2="307" stroke="#000" stroke-width="2"
 marker-end="url(#endarrow36)" marker-start="url(#startarrow36)" />
<g>
<rect x="730" y="290" height="40" width="40" style="stroke:#000000; fill: #66000000"/>
<text x="747" y="313" font-family="Verdana" font-size="10" fill="black">40</text>
</g>
<defs>
   <marker id="startarrow37" markerWidth="10" markerHeight="7"
   refX="10" refY="3.5" orient="auto">
     <polygon points="10 0, 10 7, 0 3.5" fill="black" />
   </marker>
   <marker id="endarrow37" markerWidth="10" markerHeight="7"
   refX="0" refY="3.5" orient="auto" markerUnits="strokeWidth">
       <polygon points="0 0, 10 3.5, 0 7" fill="black" />
   </marker>
 </defs>
<line x1="920" y1="307" x2="940" y2="307" stroke="#000" stroke-width="2"
 marker-end="url(#endarrow37)" marker-start="url(#startarrow37)" />
<g>
<rect x="850" y="290" height="40" width="40" style="stroke:#000000; fill: #66000000"/>
<text x="867" y="313" font-family="Verdana" font-size="10" fill="black">41</text>
</g>
<defs>
   <marker id="startarrow38" markerWidth="10" markerHeight="7"
   refX="10" refY="3.5" orient="auto">
     <polygon points="10 0, 10 7, 0 3.5" fill="black" />
   </marker>
   <marker id="endarrow38" markerWidth="10" markerHeight="7"
   refX="0" refY="3.5" orient="auto" markerUnits="strokeWidth">
       <polygon points="0 0, 10 3.5, 0 7" fill="black" />
   </marker>
 </defs>
<line x1="1040" y1="307" x2="1060" y2="307" stroke="#000" stroke-width="2"
 marker-end="url(#endarrow38)" marker-start="url(#startarrow38)" />
<g>
<rect x="970" y="290" height="40" width="40" style="stroke:#000000; fill: #66000000"/>
<text x="987" y="313" font-family="Verdana" font-size="10" fill="black">42</text>
</g>
<defs>
   <marker id="startarrow39" markerWidth="10" markerHeight="7"
   refX="10" refY="3.5" orient="auto">
     <polygon points="10 0, 10 7, 0 3.5" fill="black" />
   </marker>
   <marker id="endarrow39" markerWidth="10" markerHeight="7"
   refX="0" refY="3.5" orient="auto" markerUnits="strokeWidth">
       <polygon points="0 0, 10 3.5, 0 7" fill="black" />
   </marker>
 </defs>
<line x1="1160" y1="307" x2="1180" y2="307" stroke="#000" stroke-width="2"
 marker-end="url(#endarrow39)" marker-start="url(#startarrow39)" />
<g>
<rect x="1090" y="290" height="40" width="40" style="stroke:#000000; fill: #66000000"/>
<text x="1107" y="313" font-family="Verdana" font-size="10" fill="black">43</text>
</g>
<defs>
   <marker id="startarrow40" markerWidth="10" markerHeight="7"
   refX="10" refY="3.5" orient="auto">
     <polygon points="10 0, 10 7, 0 3.5" fill="black" />
   </marker>
   <marker id="endarrow40" markerWidth="10" markerHeight="7"
   refX="0" refY="3.5" orient="auto" markerUnits="strokeWidth">
       <polygon points="0 0, 10 3.5, 0 7" fill="black" />
   </marker>
 </defs>
<line x1="80" y1="376" x2="100" y2="376" stroke="#000" stroke-width="2"
 marker-end="url(#endarrow40)" marker-start="url(#startarrow40)" />
<g>
<rect x="10" y="360" height="40" width="40" style="stroke:#000000; fill: #66000000"/>
<text x="27" y="383" font-family="Verdana" font-size="10" fill="black">44</text>
</g>
<defs>
   <marker id="startarrow41" markerWidth="10" markerHeight="7"
   refX="10" refY="3.5" orient="auto">
     <polygon points="10 0, 10 7, 0 3.5" fill="black" />
   </marker>
   <marker id="endarrow41" markerWidth="10" markerHeight="7"
   refX="0" refY="3.5" orient="auto" markerUnits="strokeWidth">
       <polygon points="0 0, 10 3.5, 0 7" fill="black" />
   </marker>
 </defs>
<line x1="200" y1="376" x2="220" y2="376" stroke="#000" stroke-width="2"
 marker-end="url(#endarrow41)" marker-start="url(#startarrow41)" />
<g>
<rect x="130" y="360" height="40" width="40" style="stroke:#000000; fill: #66000000"/>
<text x="147" y="383" font-family="Verdana" font-size="10" fill="black">45</text>
</g>
<defs>
   <marker id="startarrow42" markerWidth="10" markerHeight="7"
   refX="10" refY="3.5" orient="auto">
     <polygon points="10 0, 10 7, 0 3.5" fill="black" />
   </marker>
   <marker id="endarrow42" markerWidth="10" markerHeight="7"
   refX="0" refY="3.5" orient="auto" markerUnits="strokeWidth">
       <polygon points="0 0, 10 3.5, 0 7" fill="black" />
   </marker>
 </defs>
<line x1="320" y1="376" x2="340" y2="376" stroke="#000" stroke-width="2"
 marker-end="url(#endarrow42)" marker-start="url(#startarrow42)" />
<g>
<rect x="250" y="360" height="40" width="40" style="stroke:#000000; fill: #66000000"/>
<text x="267" y="383" font-family="Verdana" font-size="10" fill="black">46</text>
</g>
<defs>
   <marker id="startarrow43" markerWidth="10" markerHeight="7"
   refX="10" refY="3.5" orient="auto">
     <polygon points="10 0, 10 7, 0 3.5" fill="black" />
   </marker>
   <marker id="endarrow43" markerWidth="10" markerHeight="7"
   refX="0" refY="3.5" orient="auto" markerUnits="strokeWidth">
       <polygon points="0 0, 10 3.5, 0 7" fill="black" />
   </marker>
 </defs>
<line x1="440" y1="376" x2="460" y2="376" stroke="#000" stroke-width="2"
 marker-end="url(#endarrow43)" marker-start="url(#startarrow43)" />
<g>
<rect x="370" y="360" height="40" width="40" style="stroke:#000000; fill: #66000000"/>
<text x="387" y="383" font-family="Verdana" font-size="10" fill="black">47</text>
</g>
<defs>
   <marker id="startarrow44" markerWidth="10" markerHeight="7"
   refX="10" refY="3.5" orient="auto">
     <polygon points="10 0, 10 7, 0 3.5" fill="black" />
   </marker>
   <marker id="endarrow44" markerWidth="10" markerHeight="7"
   refX="0" refY="3.5" orient="auto" markerUnits="strokeWidth">
       <polygon points="0 0, 10 3.5, 0 7" fill="black" />
   </marker>
 </defs>
<line x1="560" y1="376" x2="580" y2="376" stroke="#000" stroke-width="2"
 marker-end="url(#endarrow44)" marker-start="url(#startarrow44)" />
<g>
<rect x="490" y="360" height="40" width="40" style="stroke:#000000; fill: #66000000"/>
<text x="507" y="383" font-family="Verdana" font-size="10" fill="black">49</text>
</g>
<defs>
   <marker id="startarrow45" markerWidth="10" markerHeight="7"
   refX="10" refY="3.5" orient="auto">
     <polygon points="10 0, 10 7, 0 3.5" fill="black" />
   </marker>
   <marker id="endarrow45" markerWidth="10" markerHeight="7"
   refX="0" refY="3.5" orient="auto" markerUnits="strokeWidth">
       <polygon points="0 0, 10 3.5, 0 7" fill="black" />
   </marker>
 </defs>
<line x1="680" y1="376" x2="700" y2="376" stroke="#000" stroke-width="2"
 marker-end="url(#endarrow45)" marker-start="url(#startarrow45)" />
<g>
<rect x="610" y="360" height="40" width="40" style="stroke:#000000; fill: #66000000"/>
<text x="627" y="383" font-family="Verdana" font-size="10" fill="black">49</text>
</g>
<defs>
   <marker id="startarrow46" markerWidth="10" markerHeight="7"
   refX="10" refY="3.5" orient="auto">
     <polygon points="10 0, 10 7, 0 3.5" fill="black" />
   </marker>
   <marker id="endarrow46" markerWidth="10" markerHeight="7"
   refX="0" refY="3.5" orient="auto" markerUnits="strokeWidth">
       <polygon points="0 0, 10 3.5, 0 7" fill="black" />
   </marker>
 </defs>
<line x1="800" y1="376" x2="820" y2="376" stroke="#000" stroke-width="2"
 marker-end="url(#endarrow46)" marker-start="url(#startarrow46)" />
<g>
<rect x="730" y="360" height="40" width="40" style="stroke:#000000; fill: #66000000"/>
<text x="747" y="383" font-family="Verdana" font-size="10" fill="black">50</text>
</g>
<defs>
   <marker id="startarrow47" markerWidth="10" markerHeight="7"
   refX="10" refY="3.5" orient="auto">
     <polygon points="10 0, 10 7, 0 3.5" fill="black" />
   </marker>
   <marker id="endarrow47" markerWidth="10" markerHeight="7"
   refX="0" refY="3.5" orient="auto" markerUnits="strokeWidth">
       <polygon points="0 0, 10 3.5, 0 7" fill="black" />
   </marker>
 </defs>
<line x1="920" y1="376" x2="940" y2="376" stroke="#000" stroke-width="2"
 marker-end="url(#endarrow47)" marker-start="url(#startarrow47)" />
<g>
<rect x="850" y="360" height="40" width="40" style="stroke:#000000; fill: #66000000"/>
<text x="867" y="383" font-family="Verdana" font-size="10" fill="black">51</text>
</g>
<defs>
   <marker id="startarrow48" markerWidth="10" markerHeight="7"
   refX="10" refY="3.5" orient="auto">
     <polygon points="10 0, 10 7, 0 3.5" fill="black" />
   </marker>
   <marker id="endarrow48" markerWidth="10" markerHeight="7"
   refX="0" refY="3.5" orient="auto" markerUnits="strokeWidth">
       <polygon points="0 0, 10 3.5, 0 7" fill="black" />
   </marker>
 </defs>
<line x1="1040" y1="376" x2="1060" y2="376" stroke="#000" stroke-width="2"
 marker-end="url(#endarrow48)" marker-start="url(#startarrow48)" />
<g>
<rect x="970" y="360" height="40" width="40" style="stroke:#000000; fill: #66000000"/>
<text x="987" y="383" font-family="Verdana" font-size="10" fill="black">52</text>
</g>
<defs>
   <marker id="startarrow49" markerWidth="10" markerHeight="7"
   refX="10" refY="3.5" orient="auto">
     <polygon points="10 0, 10 7, 0 3.5" fill="black" />
   </marker>
   <marker id="endarrow49" markerWidth="10" markerHeight="7"
   refX="0" refY="3.5" orient="auto" markerUnits="strokeWidth">
       <polygon points="0 0, 10 3.5, 0 7" fill="black" />
   </marker>
 </defs>
<line x1="1160" y1="376" x2="1180" y2="376" stroke="#000" stroke-width="2"
 marker-end="url(#endarrow49)" marker-start="url(#startarrow49)" />
<g>
<rect x="1090" y="360" height="40" width="40" style="stroke:#000000; fill: #66000000"/>
<text x="1107" y="383" font-family="Verdana" font-size="10" fill="black">53</text>
</g>
<defs>
   <marker id="startarrow50" markerWidth="10" markerHeight="7"
   refX="10" refY="3.5" orient="auto">
     <polygon points="10 0, 10 7, 0 3.5" fill="black" />
   </marker>
   <marker id="endarrow50" markerWidth="10" markerHeight="7"
   refX="0" refY="3.5" orient="auto" markerUnits="strokeWidth">
       <polygon points="0 0, 10 3.5, 0 7" fill="black" />
   </marker>
 </defs>
<line x1="80" y1="445" x2="100" y2="445" stroke="#000" stroke-width="2"
 marker-end="url(#endarrow50)" marker-start="url(#startarrow50)" />
<g>
<rect x="10" y="430" height="40" width="40" style="stroke:#000000; fill: #66000000"/>
<text x="27" y="453" font-family="Verdana" font-size="10" fill="black">54</text>
</g>
<defs>
   <marker id="startarrow51" markerWidth="10" markerHeight="7"
   refX="10" refY="3.5" orient="auto">
     <polygon points="10 0, 10 7, 0 3.5" fill="black" />
   </marker>
   <marker id="endarrow51" markerWidth="10" markerHeight="7"
   refX="0" refY="3.5" orient="auto" markerUnits="strokeWidth">
       <polygon points="0 0, 10 3.5, 0 7" fill="black" />
   </marker>
 </defs>
<line x1="200" y1="445" x2="220" y2="445" stroke="#000" stroke-width="2"
 marker-end="url(#endarrow51)" marker-start="url(#startarrow51)" />
<g>
<rect x="130" y="430" height="40" width="40" style="stroke:#000000; fill: #66000000"/>
<text x="147" y="453" font-family="Verdana" font-size="10" fill="black">55</text>
</g>
<g>
<rect x="250" y="430" height="40" width="40" style="stroke:#000000; fill: #66000000"/>
<text x="267" y="453" font-family="Verdana" font-size="10" fill="black">56</text>
</g>
</svg>
