<svg xmlns="http://www.w3.org/2000/svg"
xmlns:xlink="http://www.w3.org/1999/xlink">
<g>
<rect x="10" y="80" height="40" width="40" style="stroke:#000000; fill: #66000000"/>
<text x="27" y="103" font-family="Verdana" font-size="10" fill="black">5</text>
</g>
<g>
<rect x="50" y="80" height="40" width="40" style="stroke:#000000; fill: #66000000"/>
<text x="67" y="103" font-family="Verdana" font-size="10" fill="black">1</text>
</g>
<g>
<rect x="90" y="80" height="40" width="40" style="stroke:#000000; fill: #66000000"/>
<text x="107" y="103" font-family="Verdana" font-size="10" fill="black">4</text>
</g>
<g>
<rect x="130" y="80" height="40" width="40" style="stroke:#000000; fill: #66000000"/>
<text x="147" y="103" font-family="Verdana" font-size="10" fill="black">7</text>
</g>
<g>
<rect x="170" y="80" height="40" width="40" style="stroke:#000000; fill: #66000000"/>
<text x="187" y="103" font-family="Verdana" font-size="10" fill="black">0</text>
</g>
<g>
<rect x="210" y="80" height="40" width="40" style="stroke:#000000; fill: #66000000"/>
<text x="227" y="103" font-family="Verdana" font-size="10" fill="black">2</text>
</g>
<g>
<rect x="250" y="80" height="40" width="40" style="stroke:#000000; fill: #66000000"/>
<text x="267" y="103" font-family="Verdana" font-size="10" fill="black">3</text>
</g>
<g>
<rect x="290" y="80" height="40" width="40" style="stroke:#000000; fill: #66000000"/>
<text x="307" y="103" font-family="Verdana" font-size="10" fill="black">6</text>
</g>
<g>
<rect x="330" y="80" height="40" width="40" style="stroke:#000000; fill: #66000000"/>
<text x="347" y="103" font-family="Verdana" font-size="10" fill="black">9</text>
</g>
<g>
<rect x="370" y="80" height="40" width="40" style="stroke:#000000; fill: #66000000"/>
<text x="387" y="103" font-family="Verdana" font-size="10" fill="black">31</text>
</g>
<g>
<rect x="410" y="80" height="40" width="40" style="stroke:#000000; fill: #66000000"/>
<text x="427" y="103" font-family="Verdana" font-size="10" fill="black">1</text>
</g>
<g>
<rect x="450" y="80" height="40" width="40" style="stroke:#000000; fill: #66000000"/>
<text x="467" y="103" font-family="Verdana" font-size="10" fill="black">2</text>
</g>
<g>
<rect x="490" y="80" height="40" width="40" style="stroke:#000000; fill: #66000000"/>
<text x="507" y="103" font-family="Verdana" font-size="10" fill="black">3</text>
</g>
<g>
<rect x="530" y="80" height="40" width="40" style="stroke:#000000; fill: #66000000"/>
<text x="547" y="103" font-family="Verdana" font-size="10" fill="black">4</text>
</g>
<g>
<rect x="570" y="80" height="40" width="40" style="stroke:#000000; fill: #66000000"/>
<text x="587" y="103" font-family="Verdana" font-size="10" fill="black">5</text>
</g>
<g>
<rect x="610" y="80" height="40" width="40" style="stroke:#000000; fill: #66000000"/>
<text x="627" y="103" font-family="Verdana" font-size="10" fill="black">6</text>
</g>
<g>
<rect x="650" y="80" height="40" width="40" style="stroke:#000000; fill: #66000000"/>
<text x="667" y="103" font-family="Verdana" font-size="10" fill="black">7</text>
</g>
<g>
<rect x="690" y="80" height="40" width="40" style="stroke:#000000; fill: #66000000"/>
<text x="707" y="103" font-family="Verdana" font-size="10" fill="black">9</text>
</g>
<g>
<rect x="730" y="80" height="40" width="40" style="stroke:#000000; fill: #66000000"/>
<text x="747" y="103" font-family="Verdana" font-size="10" fill="black">10</text>
</g>
<g>
<rect x="770" y="80" height="40" width="40" style="stroke:#000000; fill: #66000000"/>
<text x="787" y="103" font-family="Verdana" font-size="10" fill="black">11</text>
</g>
<g>
<rect x="10" y="150" height="40" width="40" style="stroke:#000000; fill: #66000000"/>
<text x="27" y="173" font-family="Verdana" font-size="10" fill="black">12</text>
</g>
<g>
<rect x="50" y="150" height="40" width="40" style="stroke:#000000; fill: #66000000"/>
<text x="67" y="173" font-family="Verdana" font-size="10" fill="black">13</text>
</g>
<g>
<rect x="90" y="150" height="40" width="40" style="stroke:#000000; fill: #66000000"/>
<text x="107" y="173" font-family="Verdana" font-size="10" fill="black">14</text>
</g>
<g>
<rect x="130" y="150" height="40" width="40" style="stroke:#000000; fill: #66000000"/>
<text x="147" y="173" font-family="Verdana" font-size="10" fill="black">29</text>
</g>
<g>
<rect x="170" y="150" height="40" width="40" style="stroke:#000000; fill: #66000000"/>
<text x="187" y="173" font-family="Verdana" font-size="10" fill="black">62</text>
</g>
<g>
<rect x="210" y="150" height="40" width="40" style="stroke:#000000; fill: #66000000"/>
<text x="227" y="173" font-family="Verdana" font-size="10" fill="black">63</text>
</g>
<g>
<rect x="250" y="150" height="40" width="40" style="stroke:#000000; fill: #66000000"/>
<text x="267" y="173" font-family="Verdana" font-size="10" fill="black">30</text>
</g>
<g>
<rect x="290" y="150" height="40" width="40" style="stroke:#000000; fill: #66000000"/>
<text x="307" y="173" font-family="Verdana" font-size="10" fill="black">31</text>
</g>
<g>
<rect x="330" y="150" height="40" width="40" style="stroke:#000000; fill: #66000000"/>
<text x="347" y="173" font-family="Verdana" font-size="10" fill="black">32</text>
</g>
<g>
<rect x="370" y="150" height="40" width="40" style="stroke:#000000; fill: #66000000"/>
<text x="387" y="173" font-family="Verdana" font-size="10" fill="black">33</text>
</g>
<g>
<rect x="410" y="150" height="40" width="40" style="stroke:#000000; fill: #66000000"/>
<text x="427" y="173" font-family="Verdana" font-size="10" fill="black">34</text>
</g>
<g>
<rect x="450" y="150" height="40" width="40" style="stroke:#000000; fill: #66000000"/>
<text x="467" y="173" font-family="Verdana" font-size="10" fill="black">35</text>
</g>
<g>
<rect x="490" y="150" height="40" width="40" style="stroke:#000000; fill: #66000000"/>
<text x="507" y="173" font-family="Verdana" font-size="10" fill="black">36</text>
</g>
<g>
<rect x="530" y="150" height="40" width="40" style="stroke:#000000; fill: #66000000"/>
<text x="547" y="173" font-family="Verdana" font-size="10" fill="black">37</text>
</g>
<g>
<rect x="570" y="150" height="40" width="40" style="stroke:#000000; fill: #66000000"/>
<text x="587" y="173" font-family="Verdana" font-size="10" fill="black">38</text>
</g>
<g>
<rect x="610" y="150" height="40" width="40" style="stroke:#000000; fill: #66000000"/>
<text x="627" y="173" font-family="Verdana" font-size="10" fill="black">39</text>
</g>
<g>
<rect x="650" y="150" height="40" width="40" style="stroke:#000000; fill: #66000000"/>
<text x="667" y="173" font-family="Verdana" font-size="10" fill="black">40</text>
</g>
<g>
<rect x="690" y="150" height="40" width="40" style="stroke:#000000; fill: #66000000"/>
<text x="707" y="173" font-family="Verdana" font-size="10" fill="black">41</text>
</g>
<g>
<rect x="730" y="150" height="40" width="40" style="stroke:#000000; fill: #66000000"/>
<text x="747" y="173" font-family="Verdana" font-size="10" fill="black">42</text>
</g>
<g>
<rect x="770" y="150" height="40" width="40" style="stroke:#000000; fill: #66000000"/>
<text x="787" y="173" font-family="Verdana" font-size="10" fill="black">43</text>
</g>
<g>
<rect x="10" y="220" height="40" width="40" style="stroke:#000000; fill: #66000000"/>
<text x="27" y="243" font-family="Verdana" font-size="10" fill="black">44</text>
</g>
<g>
<rect x="50" y="220" height="40" width="40" style="stroke:#000000; fill: #66000000"/>
<text x="67" y="243" font-family="Verdana" font-size="10" fill="black">45</text>
</g>
<g>
<rect x="90" y="220" height="40" width="40" style="stroke:#000000; fill: #66000000"/>
<text x="107" y="243" font-family="Verdana" font-size="10" fill="black">46</text>
</g>
<g>
<rect x="130" y="220" height="40" width="40" style="stroke:#000000; fill: #66000000"/>
<text x="147" y="243" font-family="Verdana" font-size="10" fill="black">47</text>
</g>
<g>
<rect x="170" y="220" height="40" width="40" style="stroke:#000000; fill: #66000000"/>
<text x="187" y="243" font-family="Verdana" font-size="10" fill="black">49</text>
</g>
<g>
<rect x="210" y="220" height="40" width="40" style="stroke:#000000; fill: #66000000"/>
<text x="227" y="243" font-family="Verdana" font-size="10" fill="black">49</text>
</g>
<g>
<rect x="250" y="220" height="40" width="40" style="stroke:#000000; fill: #66000000"/>
<text x="267" y="243" font-family="Verdana" font-size="10" fill="black">50</text>
</g>
<g>
<rect x="290" y="220" height="40" width="40" style="stroke:#000000; fill: #66000000"/>
<text x="307" y="243" font-family="Verdana" font-size="10" fill="black">51</text>
</g>
<g>
<rect x="330" y="220" height="40" width="40" style="stroke:#000000; fill: #66000000"/>
<text x="347" y="243" font-family="Verdana" font-size="10" fill="black">52</text>
</g>
<g>
<rect x="370" y="220" height="40" width="40" style="stroke:#000000; fill: #66000000"/>
<text x="387" y="243" font-family="Verdana" font-size="10" fill="black">53</text>
</g>
<g>
<rect x="410" y="220" height="40" width="40" style="stroke:#000000; fill: #66000000"/>
<text x="427" y="243" font-family="Verdana" font-size="10" fill="black">54</text>
</g>
<g>
<rect x="450" y="220" height="40" width="40" style="stroke:#000000; fill: #66000000"/>
<text x="467" y="243" font-family="Verdana" font-size="10" fill="black">55</text>
</g>
<g>
<rect x="490" y="220" height="40" width="40" style="stroke:#000000; fill: #66000000"/>
<text x="507" y="243" font-family="Verdana" font-size="10" fill="black">56</text>
</g>
</svg>
